<svg width="700" height="500" viewBox="0 0 700 500" xmlns="http://www.w3.org/2000/svg">
  <defs>
    <pattern id="grass" patternUnits="userSpaceOnUse" width="4" height="4">
      <rect width="4" height="4" fill="#22c55e"/>
      <rect width="2" height="2" fill="#16a34a"/>
    </pattern>
    <linearGradient id="standGradient" x1="0%" y1="0%" x2="0%" y2="100%">
      <stop offset="0%" style="stop-color:#e5e7eb;stop-opacity:1" />
      <stop offset="100%" style="stop-color:#9ca3af;stop-opacity:1" />
    </linearGradient>
    <linearGradient id="pavilionGradient" x1="0%" y1="0%" x2="0%" y2="100%">
      <stop offset="0%" style="stop-color:#fef3c7;stop-opacity:1" />
      <stop offset="100%" style="stop-color:#f59e0b;stop-opacity:1" />
    </linearGradient>
  </defs>
  
  <style>
    .stand { fill: url(#standGradient); stroke: #374151; stroke-width: 2; transition: all 0.3s; cursor: pointer; }
    .stand:hover { filter: brightness(1.1); }
    .pavilion { fill: url(#pavilionGradient); stroke: #92400e; stroke-width: 2; transition: all 0.3s; cursor: pointer; }
    .pavilion:hover { filter: brightness(1.1); }
    .label { font-family: 'Arial', sans-serif; font-size: 12px; fill: #1f2937; text-anchor: middle; font-weight: bold; pointer-events: none; }
    .field-label { font-family: 'Arial', sans-serif; font-size: 16px; fill: #065f46; text-anchor: middle; font-weight: bold; pointer-events: none; }
    .field { fill: url(#grass); stroke: #166534; stroke-width: 3; }
    .pitch { fill: #fbbf24; stroke: #92400e; stroke-width: 2; }
    .boundary { fill: none; stroke: #dc2626; stroke-width: 2; stroke-dasharray: 5,5; }
    .gate { fill: #dc2626; stroke: #991b1b; stroke-width: 2; }
    .gate-label { font-family: 'Arial', sans-serif; font-size: 10px; fill: white; text-anchor: middle; font-weight: bold; }
  </style>
  
  <!-- Background -->
  <rect width="700" height="500" fill="#f9fafb"/>
  
  <!-- Stadium Bowl (Outer boundary) -->
  <ellipse cx="350" cy="250" rx="320" ry="220" fill="#d1d5db" stroke="#6b7280" stroke-width="3"/>
  
  <!-- Playing Field -->
  <ellipse class="field" cx="350" cy="250" rx="240" ry="160"/>
  
  <!-- Boundary Line -->
  <ellipse class="boundary" cx="350" cy="250" rx="200" ry="130"/>
  
  <!-- Pitch -->
  <rect class="pitch" x="330" y="230" width="40" height="40" rx="5"/>
  
  <!-- North Stand (Premium - Pavilion area) -->
  <g class="pavilion" id="pavilion-north">
    <path d="M 180 80 Q 350 50 520 80 L 520 130 Q 350 110 180 130 Z"/>
  </g>
  <text x="350" y="100" class="label">PAVILION TERRACE</text>
  
  <!-- P1, P2, P3 Stands (Premium behind pavilion) -->
  <g class="pavilion" id="p-stands">
    <path d="M 200 30 Q 350 10 500 30 L 500 70 Q 350 50 200 70 Z"/>
  </g>
  <text x="280" y="50" class="label">P1</text>
  <text x="350" y="50" class="label">P2</text>
  <text x="420" y="50" class="label">P3</text>
  
  <!-- South Stand (opposite to pavilion) -->
  <g class="stand" id="south-stand">
    <path d="M 180 420 Q 350 450 520 420 L 520 370 Q 350 390 180 370 Z"/>
  </g>
  <text x="350" y="400" class="label">SOUTH STAND</text>
  
  <!-- A Stand (Upper tier) -->
  <g class="stand" id="a-upper">
    <path d="M 150 130 Q 180 120 200 130 L 200 180 Q 180 170 150 180 Z"/>
  </g>
  <text x="175" y="155" class="label">A</text>
  
  <!-- B Stand -->
  <g class="stand" id="b-stand">
    <path d="M 120 180 Q 150 170 180 180 L 180 230 Q 150 220 120 230 Z"/>
  </g>
  <text x="150" y="205" class="label">B</text>
  
  <!-- C Stand (Upper tier) -->
  <g class="stand" id="c-upper">
    <path d="M 120 230 Q 150 220 180 230 L 180 280 Q 150 270 120 280 Z"/>
  </g>
  <text x="150" y="255" class="label">C</text>
  
  <!-- D Stand -->
  <g class="stand" id="d-stand">
    <path d="M 120 280 Q 150 270 180 280 L 180 330 Q 150 320 120 330 Z"/>
  </g>
  <text x="150" y="305" class="label">D</text>
  
  <!-- E Stand -->
  <g class="stand" id="e-stand">
    <path d="M 150 330 Q 180 320 200 330 L 200 370 Q 180 360 150 370 Z"/>
  </g>
  <text x="175" y="350" class="label">E</text>
  
  <!-- F Stand (East side) -->
  <g class="stand" id="f-stand">
    <path d="M 500 130 Q 530 120 550 130 L 550 180 Q 530 170 500 180 Z"/>
  </g>
  <text x="525" y="155" class="label">F</text>
  
  <!-- G Stand (Upper tier - East) -->
  <g class="stand" id="g-upper">
    <path d="M 520 180 Q 550 170 580 180 L 580 230 Q 550 220 520 230 Z"/>
  </g>
  <text x="550" y="205" class="label">G</text>
  
  <!-- H Stand -->
  <g class="stand" id="h-stand">
    <path d="M 520 230 Q 550 220 580 230 L 580 280 Q 550 270 520 280 Z"/>
  </g>
  <text x="550" y="255" class="label">H</text>
  
  <!-- I Stand -->
  <g class="stand" id="i-stand">
    <path d="M 520 280 Q 550 270 580 280 L 580 330 Q 550 320 520 330 Z"/>
  </g>
  <text x="550" y="305" class="label">I</text>
  
  <!-- J Stand -->
  <g class="stand" id="j-stand">
    <path d="M 500 330 Q 530 320 550 330 L 550 370 Q 530 360 500 370 Z"/>
  </g>
  <text x="525" y="350" class="label">J</text>
  
  <!-- N Stand (Behind bowler's end) -->
  <g class="pavilion" id="n-stand">
    <path d="M 320 370 Q 350 380 380 370 L 380 420 Q 350 410 320 420 Z"/>
  </g>
  <text x="350" y="395" class="label">N</text>
  
  <!-- Gates -->
  <g class="gate" id="gate-1">
    <rect x="330" y="15" width="20" height="15" rx="2"/>
    <text x="340" y="26" class="gate-label">G1</text>
  </g>
  
  <g class="gate" id="gate-2">
    <rect x="360" y="15" width="20" height="15" rx="2"/>
    <text x="370" y="26" class="gate-label">G2</text>
  </g>
  
  <g class="gate" id="gate-3">
    <rect x="585" y="240" width="15" height="20" rx="2"/>
    <text x="592" y="253" class="gate-label">G3</text>
  </g>
  
  <g class="gate" id="gate-4">
    <rect x="100" y="240" width="15" height="20" rx="2"/>
    <text x="107" y="253" class="gate-label">G4</text>
  </g>
  
  <g class="gate" id="gate-5">
    <rect x="330" y="470" width="20" height="15" rx="2"/>
    <text x="340" y="481" class="gate-label">G5</text>
  </g>
  
  <g class="gate" id="gate-6">
    <rect x="360" y="470" width="20" height="15" rx="2"/>
    <text x="370" y="481" class="gate-label">G6</text>
  </g>
  
  <!-- Field Labels -->
  <text x="350" y="250" class="field-label">PLAYING FIELD</text>
  <text x="350" y="270" class="label">22 YARDS</text>
  
  <!-- Stadium Name -->
  <text x="350" y="485" style="font-family: Arial; font-size: 18px; fill: #1f2937; text-anchor: middle; font-weight: bold;">M. CHINNASWAMY STADIUM</text>
  
  <!-- Capacity Info -->
  <text x="50" y="30" style="font-family: Arial; font-size: 12px; fill: #374151;">Capacity: 40,000</text>
  <text x="50" y="45" style="font-family: Arial; font-size: 12px; fill: #374151;">Boundary: 55-65m</text>
  
  <!-- Legend -->
  <rect x="550" y="20" width="140" height="80" fill="white" stroke="#6b7280" stroke-width="1" rx="5"/>
  <text x="620" y="35" style="font-family: Arial; font-size: 12px; fill: #1f2937; text-anchor: middle; font-weight: bold;">LEGEND</text>
  <rect x="560" y="40" width="15" height="10" fill="url(#pavilionGradient)"/>
  <text x="580" y="49" style="font-family: Arial; font-size: 10px; fill: #1f2937;">Premium Stands</text>
  <rect x="560" y="55" width="15" height="10" fill="url(#standGradient)"/>
  <text x="580" y="64" style="font-family: Arial; font-size: 10px; fill: #1f2937;">General Stands</text>
  <rect x="560" y="70" width="15" height="10" fill="url(#grass)"/>
  <text x="580" y="79" style="font-family: Arial; font-size: 10px; fill: #1f2937;">Playing Area</text>
  <rect x="560" y="85" width="15" height="8" fill="#dc2626"/>
  <text x="580" y="93" style="font-family: Arial; font-size: 10px; fill: #1f2937;">Gates</text>
</svg>

